<mxfile host="app.diagrams.net" agent="Mozilla/5.0 (Windows NT 10.0; Win64; x64) AppleWebKit/537.36 (KHTML, like Gecko) Chrome/129.0.0.0 Safari/537.36" version="24.7.17">
  <diagram id="R2lEEEUBdFMjLlhIrx00" name="Page-1">
    <mxGraphModel dx="880" dy="468" grid="1" gridSize="10" guides="1" tooltips="1" connect="1" arrows="1" fold="1" page="1" pageScale="1" pageWidth="850" pageHeight="1100" math="0" shadow="0" extFonts="Permanent Marker^https://fonts.googleapis.com/css?family=Permanent+Marker">
      <root>
        <mxCell id="0" />
        <mxCell id="1" parent="0" />
        <mxCell id="mQoHJH7nJMJbnjslAucd-1" value="CLIENTE" style="whiteSpace=wrap;html=1;align=center;" vertex="1" parent="1">
          <mxGeometry x="130" y="440" width="100" height="40" as="geometry" />
        </mxCell>
        <mxCell id="mQoHJH7nJMJbnjslAucd-3" value="INGREDIENTE" style="whiteSpace=wrap;html=1;align=center;" vertex="1" parent="1">
          <mxGeometry x="340" y="790" width="100" height="40" as="geometry" />
        </mxCell>
        <mxCell id="mQoHJH7nJMJbnjslAucd-4" value="" style="endArrow=none;html=1;rounded=0;exitX=1;exitY=0.5;exitDx=0;exitDy=0;" edge="1" parent="1" source="mQoHJH7nJMJbnjslAucd-1" target="mQoHJH7nJMJbnjslAucd-5">
          <mxGeometry relative="1" as="geometry">
            <mxPoint x="210" y="459.5" as="sourcePoint" />
            <mxPoint x="320" y="460" as="targetPoint" />
          </mxGeometry>
        </mxCell>
        <mxCell id="mQoHJH7nJMJbnjslAucd-5" value="fa" style="shape=rhombus;perimeter=rhombusPerimeter;whiteSpace=wrap;html=1;align=center;" vertex="1" parent="1">
          <mxGeometry x="330" y="430" width="120" height="60" as="geometry" />
        </mxCell>
        <mxCell id="mQoHJH7nJMJbnjslAucd-8" value="" style="endArrow=none;html=1;rounded=0;" edge="1" parent="1" target="mQoHJH7nJMJbnjslAucd-9">
          <mxGeometry relative="1" as="geometry">
            <mxPoint x="450" y="459.5" as="sourcePoint" />
            <mxPoint x="560" y="460" as="targetPoint" />
          </mxGeometry>
        </mxCell>
        <mxCell id="mQoHJH7nJMJbnjslAucd-9" value="ORDINE" style="whiteSpace=wrap;html=1;align=center;" vertex="1" parent="1">
          <mxGeometry x="540" y="440" width="100" height="40" as="geometry" />
        </mxCell>
        <mxCell id="mQoHJH7nJMJbnjslAucd-11" value="" style="endArrow=none;html=1;rounded=0;entryX=0.5;entryY=1;entryDx=0;entryDy=0;exitX=0.5;exitY=0;exitDx=0;exitDy=0;" edge="1" parent="1" source="mQoHJH7nJMJbnjslAucd-17" target="mQoHJH7nJMJbnjslAucd-14">
          <mxGeometry relative="1" as="geometry">
            <mxPoint x="590" y="760" as="sourcePoint" />
            <mxPoint x="600" y="730" as="targetPoint" />
          </mxGeometry>
        </mxCell>
        <mxCell id="mQoHJH7nJMJbnjslAucd-12" value="" style="endArrow=none;html=1;rounded=0;exitX=0.5;exitY=1;exitDx=0;exitDy=0;" edge="1" parent="1" source="mQoHJH7nJMJbnjslAucd-9" target="mQoHJH7nJMJbnjslAucd-13">
          <mxGeometry relative="1" as="geometry">
            <mxPoint x="570" y="550" as="sourcePoint" />
            <mxPoint x="590" y="570" as="targetPoint" />
          </mxGeometry>
        </mxCell>
        <mxCell id="mQoHJH7nJMJbnjslAucd-13" value="contiene" style="shape=rhombus;perimeter=rhombusPerimeter;whiteSpace=wrap;html=1;align=center;" vertex="1" parent="1">
          <mxGeometry x="530" y="550" width="120" height="60" as="geometry" />
        </mxCell>
        <mxCell id="mQoHJH7nJMJbnjslAucd-16" value="" style="endArrow=none;html=1;rounded=0;" edge="1" parent="1" target="mQoHJH7nJMJbnjslAucd-14">
          <mxGeometry relative="1" as="geometry">
            <mxPoint x="590" y="610" as="sourcePoint" />
            <mxPoint x="590" y="730" as="targetPoint" />
          </mxGeometry>
        </mxCell>
        <mxCell id="mQoHJH7nJMJbnjslAucd-14" value="PIATTO" style="whiteSpace=wrap;html=1;align=center;" vertex="1" parent="1">
          <mxGeometry x="540" y="670" width="100" height="40" as="geometry" />
        </mxCell>
        <mxCell id="mQoHJH7nJMJbnjslAucd-17" value="contiene" style="shape=rhombus;perimeter=rhombusPerimeter;whiteSpace=wrap;html=1;align=center;" vertex="1" parent="1">
          <mxGeometry x="530" y="780" width="120" height="60" as="geometry" />
        </mxCell>
        <mxCell id="mQoHJH7nJMJbnjslAucd-18" value="" style="endArrow=none;html=1;rounded=0;entryX=0;entryY=0.5;entryDx=0;entryDy=0;exitX=1;exitY=0.5;exitDx=0;exitDy=0;" edge="1" parent="1" source="mQoHJH7nJMJbnjslAucd-3" target="mQoHJH7nJMJbnjslAucd-17">
          <mxGeometry relative="1" as="geometry">
            <mxPoint x="340" y="860" as="sourcePoint" />
            <mxPoint x="500" y="860" as="targetPoint" />
          </mxGeometry>
        </mxCell>
        <mxCell id="mQoHJH7nJMJbnjslAucd-19" value="" style="endArrow=none;html=1;rounded=0;exitX=0.5;exitY=1;exitDx=0;exitDy=0;entryX=0.5;entryY=0;entryDx=0;entryDy=0;" edge="1" parent="1" source="mQoHJH7nJMJbnjslAucd-3" target="mQoHJH7nJMJbnjslAucd-20">
          <mxGeometry relative="1" as="geometry">
            <mxPoint x="370" y="850" as="sourcePoint" />
            <mxPoint x="390" y="880" as="targetPoint" />
          </mxGeometry>
        </mxCell>
        <mxCell id="mQoHJH7nJMJbnjslAucd-20" value="provoca" style="shape=rhombus;perimeter=rhombusPerimeter;whiteSpace=wrap;html=1;align=center;" vertex="1" parent="1">
          <mxGeometry x="330" y="890" width="120" height="60" as="geometry" />
        </mxCell>
        <mxCell id="mQoHJH7nJMJbnjslAucd-21" value="INTOLLERANZA" style="whiteSpace=wrap;html=1;align=center;" vertex="1" parent="1">
          <mxGeometry x="340" y="1010" width="100" height="40" as="geometry" />
        </mxCell>
        <mxCell id="mQoHJH7nJMJbnjslAucd-22" value="" style="endArrow=none;html=1;rounded=0;exitX=0.5;exitY=1;exitDx=0;exitDy=0;entryX=0.5;entryY=0;entryDx=0;entryDy=0;" edge="1" parent="1" source="mQoHJH7nJMJbnjslAucd-20" target="mQoHJH7nJMJbnjslAucd-21">
          <mxGeometry relative="1" as="geometry">
            <mxPoint x="340" y="860" as="sourcePoint" />
            <mxPoint x="500" y="860" as="targetPoint" />
          </mxGeometry>
        </mxCell>
        <mxCell id="mQoHJH7nJMJbnjslAucd-23" value="" style="endArrow=oval;html=1;rounded=0;endFill=0;exitX=0.25;exitY=0;exitDx=0;exitDy=0;" edge="1" parent="1" source="mQoHJH7nJMJbnjslAucd-1">
          <mxGeometry relative="1" as="geometry">
            <mxPoint x="130" y="390" as="sourcePoint" />
            <mxPoint x="140" y="390" as="targetPoint" />
          </mxGeometry>
        </mxCell>
        <mxCell id="mQoHJH7nJMJbnjslAucd-28" value="tavolo" style="text;html=1;align=center;verticalAlign=middle;resizable=0;points=[];autosize=1;strokeColor=none;fillColor=none;" vertex="1" parent="1">
          <mxGeometry x="110" y="360" width="60" height="30" as="geometry" />
        </mxCell>
        <mxCell id="mQoHJH7nJMJbnjslAucd-29" value="" style="endArrow=oval;html=1;rounded=0;endFill=0;exitX=0;exitY=0.25;exitDx=0;exitDy=0;" edge="1" parent="1" source="mQoHJH7nJMJbnjslAucd-1">
          <mxGeometry relative="1" as="geometry">
            <mxPoint x="165" y="450" as="sourcePoint" />
            <mxPoint x="100" y="420" as="targetPoint" />
          </mxGeometry>
        </mxCell>
        <mxCell id="mQoHJH7nJMJbnjslAucd-30" value="data di nascita" style="text;html=1;align=center;verticalAlign=middle;resizable=0;points=[];autosize=1;strokeColor=none;fillColor=none;" vertex="1" parent="1">
          <mxGeometry x="20" y="390" width="100" height="30" as="geometry" />
        </mxCell>
        <mxCell id="mQoHJH7nJMJbnjslAucd-31" value="nome" style="text;html=1;align=center;verticalAlign=middle;resizable=0;points=[];autosize=1;strokeColor=none;fillColor=none;" vertex="1" parent="1">
          <mxGeometry x="40" y="445" width="50" height="30" as="geometry" />
        </mxCell>
        <mxCell id="mQoHJH7nJMJbnjslAucd-32" value="" style="endArrow=oval;html=1;rounded=0;endFill=0;" edge="1" parent="1">
          <mxGeometry relative="1" as="geometry">
            <mxPoint x="130" y="460" as="sourcePoint" />
            <mxPoint x="90" y="460" as="targetPoint" />
          </mxGeometry>
        </mxCell>
        <mxCell id="mQoHJH7nJMJbnjslAucd-33" value="" style="endArrow=oval;html=1;rounded=0;exitX=0.25;exitY=0;exitDx=0;exitDy=0;endFill=0;" edge="1" parent="1" source="mQoHJH7nJMJbnjslAucd-9">
          <mxGeometry width="50" height="50" relative="1" as="geometry">
            <mxPoint x="560" y="440" as="sourcePoint" />
            <mxPoint x="560" y="400" as="targetPoint" />
          </mxGeometry>
        </mxCell>
        <mxCell id="mQoHJH7nJMJbnjslAucd-34" value="nr piatti" style="text;html=1;align=center;verticalAlign=middle;resizable=0;points=[];autosize=1;strokeColor=none;fillColor=none;" vertex="1" parent="1">
          <mxGeometry x="510" y="368" width="60" height="30" as="geometry" />
        </mxCell>
        <mxCell id="mQoHJH7nJMJbnjslAucd-35" value="" style="endArrow=oval;html=1;rounded=0;exitX=0.64;exitY=0.025;exitDx=0;exitDy=0;endFill=0;exitPerimeter=0;" edge="1" parent="1">
          <mxGeometry width="50" height="50" relative="1" as="geometry">
            <mxPoint x="612" y="440" as="sourcePoint" />
            <mxPoint x="608" y="400" as="targetPoint" />
          </mxGeometry>
        </mxCell>
        <mxCell id="mQoHJH7nJMJbnjslAucd-36" value="stato" style="text;html=1;align=center;verticalAlign=middle;resizable=0;points=[];autosize=1;strokeColor=none;fillColor=none;" vertex="1" parent="1">
          <mxGeometry x="585" y="369" width="50" height="30" as="geometry" />
        </mxCell>
        <mxCell id="mQoHJH7nJMJbnjslAucd-37" value="" style="endArrow=oval;html=1;rounded=0;exitX=1;exitY=0.5;exitDx=0;exitDy=0;endFill=1;" edge="1" parent="1" source="mQoHJH7nJMJbnjslAucd-9">
          <mxGeometry width="50" height="50" relative="1" as="geometry">
            <mxPoint x="640" y="449" as="sourcePoint" />
            <mxPoint x="680" y="440" as="targetPoint" />
          </mxGeometry>
        </mxCell>
        <mxCell id="mQoHJH7nJMJbnjslAucd-38" value="nr ordine" style="text;html=1;align=center;verticalAlign=middle;resizable=0;points=[];autosize=1;strokeColor=none;fillColor=none;" vertex="1" parent="1">
          <mxGeometry x="655" y="418" width="70" height="30" as="geometry" />
        </mxCell>
        <mxCell id="mQoHJH7nJMJbnjslAucd-39" value="" style="endArrow=oval;html=1;rounded=0;exitX=0;exitY=0.25;exitDx=0;exitDy=0;endFill=0;" edge="1" parent="1" source="mQoHJH7nJMJbnjslAucd-14">
          <mxGeometry width="50" height="50" relative="1" as="geometry">
            <mxPoint x="400" y="580" as="sourcePoint" />
            <mxPoint x="490" y="660" as="targetPoint" />
          </mxGeometry>
        </mxCell>
        <mxCell id="mQoHJH7nJMJbnjslAucd-40" value="nome&lt;div&gt;&lt;br&gt;&lt;/div&gt;" style="text;html=1;align=center;verticalAlign=middle;resizable=0;points=[];autosize=1;strokeColor=none;fillColor=none;" vertex="1" parent="1">
          <mxGeometry x="450" y="640" width="50" height="40" as="geometry" />
        </mxCell>
        <mxCell id="mQoHJH7nJMJbnjslAucd-41" value="" style="endArrow=oval;html=1;rounded=0;exitX=0;exitY=0.5;exitDx=0;exitDy=0;endFill=0;" edge="1" parent="1" source="mQoHJH7nJMJbnjslAucd-14">
          <mxGeometry width="50" height="50" relative="1" as="geometry">
            <mxPoint x="400" y="580" as="sourcePoint" />
            <mxPoint x="470" y="700" as="targetPoint" />
          </mxGeometry>
        </mxCell>
        <mxCell id="mQoHJH7nJMJbnjslAucd-42" value="descrizione" style="text;html=1;align=center;verticalAlign=middle;resizable=0;points=[];autosize=1;strokeColor=none;fillColor=none;" vertex="1" parent="1">
          <mxGeometry x="400" y="675" width="80" height="30" as="geometry" />
        </mxCell>
        <mxCell id="mQoHJH7nJMJbnjslAucd-43" value="" style="endArrow=oval;html=1;rounded=0;exitX=1;exitY=0.5;exitDx=0;exitDy=0;endFill=0;" edge="1" parent="1" source="mQoHJH7nJMJbnjslAucd-14">
          <mxGeometry width="50" height="50" relative="1" as="geometry">
            <mxPoint x="640" y="685" as="sourcePoint" />
            <mxPoint x="680" y="690" as="targetPoint" />
          </mxGeometry>
        </mxCell>
        <mxCell id="mQoHJH7nJMJbnjslAucd-44" value="prezzo" style="text;html=1;align=center;verticalAlign=middle;resizable=0;points=[];autosize=1;strokeColor=none;fillColor=none;" vertex="1" parent="1">
          <mxGeometry x="680" y="668" width="60" height="30" as="geometry" />
        </mxCell>
        <mxCell id="mQoHJH7nJMJbnjslAucd-45" value="" style="endArrow=oval;html=1;rounded=0;endFill=0;exitX=1;exitY=0.75;exitDx=0;exitDy=0;" edge="1" parent="1" source="mQoHJH7nJMJbnjslAucd-14">
          <mxGeometry width="50" height="50" relative="1" as="geometry">
            <mxPoint x="650" y="710" as="sourcePoint" />
            <mxPoint x="690" y="710" as="targetPoint" />
          </mxGeometry>
        </mxCell>
        <mxCell id="mQoHJH7nJMJbnjslAucd-46" value="tempo di preparazione" style="text;html=1;align=center;verticalAlign=middle;resizable=0;points=[];autosize=1;strokeColor=none;fillColor=none;" vertex="1" parent="1">
          <mxGeometry x="655" y="710" width="140" height="30" as="geometry" />
        </mxCell>
        <mxCell id="mQoHJH7nJMJbnjslAucd-47" value="" style="endArrow=oval;html=1;rounded=0;exitX=0;exitY=0.5;exitDx=0;exitDy=0;endFill=0;" edge="1" parent="1" source="mQoHJH7nJMJbnjslAucd-3">
          <mxGeometry width="50" height="50" relative="1" as="geometry">
            <mxPoint x="400" y="780" as="sourcePoint" />
            <mxPoint x="290" y="810" as="targetPoint" />
          </mxGeometry>
        </mxCell>
        <mxCell id="mQoHJH7nJMJbnjslAucd-48" value="nome" style="text;html=1;align=center;verticalAlign=middle;resizable=0;points=[];autosize=1;strokeColor=none;fillColor=none;" vertex="1" parent="1">
          <mxGeometry x="240" y="795" width="50" height="30" as="geometry" />
        </mxCell>
        <mxCell id="mQoHJH7nJMJbnjslAucd-49" value="" style="endArrow=oval;html=1;rounded=0;exitX=0.13;exitY=0.05;exitDx=0;exitDy=0;endFill=0;exitPerimeter=0;" edge="1" parent="1" source="mQoHJH7nJMJbnjslAucd-3">
          <mxGeometry width="50" height="50" relative="1" as="geometry">
            <mxPoint x="360" y="780" as="sourcePoint" />
            <mxPoint x="310" y="770" as="targetPoint" />
          </mxGeometry>
        </mxCell>
        <mxCell id="mQoHJH7nJMJbnjslAucd-50" value="scadenza" style="text;html=1;align=center;verticalAlign=middle;resizable=0;points=[];autosize=1;strokeColor=none;fillColor=none;" vertex="1" parent="1">
          <mxGeometry x="250" y="740" width="70" height="30" as="geometry" />
        </mxCell>
        <mxCell id="mQoHJH7nJMJbnjslAucd-51" value="" style="endArrow=oval;html=1;rounded=0;exitX=1;exitY=0.25;exitDx=0;exitDy=0;endFill=0;" edge="1" parent="1" source="mQoHJH7nJMJbnjslAucd-21">
          <mxGeometry width="50" height="50" relative="1" as="geometry">
            <mxPoint x="400" y="980" as="sourcePoint" />
            <mxPoint x="490" y="1020" as="targetPoint" />
          </mxGeometry>
        </mxCell>
        <mxCell id="mQoHJH7nJMJbnjslAucd-52" value="tipo" style="text;html=1;align=center;verticalAlign=middle;resizable=0;points=[];autosize=1;strokeColor=none;fillColor=none;" vertex="1" parent="1">
          <mxGeometry x="490" y="1010" width="40" height="30" as="geometry" />
        </mxCell>
        <mxCell id="mQoHJH7nJMJbnjslAucd-53" value="1" style="text;html=1;align=center;verticalAlign=middle;resizable=0;points=[];autosize=1;strokeColor=none;fillColor=none;" vertex="1" parent="1">
          <mxGeometry x="220" y="440" width="30" height="30" as="geometry" />
        </mxCell>
        <mxCell id="mQoHJH7nJMJbnjslAucd-54" value="1, N" style="text;html=1;align=center;verticalAlign=middle;resizable=0;points=[];autosize=1;strokeColor=none;fillColor=none;" vertex="1" parent="1">
          <mxGeometry x="500" y="440" width="50" height="30" as="geometry" />
        </mxCell>
        <mxCell id="mQoHJH7nJMJbnjslAucd-55" value="0, N" style="text;html=1;align=center;verticalAlign=middle;resizable=0;points=[];autosize=1;strokeColor=none;fillColor=none;" vertex="1" parent="1">
          <mxGeometry x="550" y="475" width="50" height="30" as="geometry" />
        </mxCell>
        <mxCell id="mQoHJH7nJMJbnjslAucd-56" value="1, N" style="text;html=1;align=center;verticalAlign=middle;resizable=0;points=[];autosize=1;strokeColor=none;fillColor=none;" vertex="1" parent="1">
          <mxGeometry x="550" y="645" width="50" height="30" as="geometry" />
        </mxCell>
        <mxCell id="mQoHJH7nJMJbnjslAucd-57" value="0, N" style="text;html=1;align=center;verticalAlign=middle;resizable=0;points=[];autosize=1;strokeColor=none;fillColor=none;" vertex="1" parent="1">
          <mxGeometry x="545" y="708" width="50" height="30" as="geometry" />
        </mxCell>
        <mxCell id="mQoHJH7nJMJbnjslAucd-58" value="&amp;nbsp;1, N" style="text;html=1;align=center;verticalAlign=middle;resizable=0;points=[];autosize=1;strokeColor=none;fillColor=none;" vertex="1" parent="1">
          <mxGeometry x="425" y="788" width="50" height="30" as="geometry" />
        </mxCell>
        <mxCell id="mQoHJH7nJMJbnjslAucd-60" value="&amp;nbsp;1, N" style="text;html=1;align=center;verticalAlign=middle;resizable=0;points=[];autosize=1;strokeColor=none;fillColor=none;" vertex="1" parent="1">
          <mxGeometry x="375" y="828" width="50" height="30" as="geometry" />
        </mxCell>
        <mxCell id="mQoHJH7nJMJbnjslAucd-61" value="&amp;nbsp; &amp;nbsp;0, N" style="text;html=1;align=center;verticalAlign=middle;resizable=0;points=[];autosize=1;strokeColor=none;fillColor=none;" vertex="1" parent="1">
          <mxGeometry x="370" y="990" width="60" height="30" as="geometry" />
        </mxCell>
        <mxCell id="mQoHJH7nJMJbnjslAucd-62" value="In lavorazione,&lt;div&gt;Pronto,&lt;/div&gt;&lt;div&gt;Servito&lt;/div&gt;" style="shape=note;size=20;whiteSpace=wrap;html=1;" vertex="1" parent="1">
          <mxGeometry x="670" y="300" width="95" height="80" as="geometry" />
        </mxCell>
        <mxCell id="mQoHJH7nJMJbnjslAucd-64" value="" style="endArrow=none;html=1;rounded=0;dashed=1;endFill=0;" edge="1" parent="1">
          <mxGeometry width="50" height="50" relative="1" as="geometry">
            <mxPoint x="620" y="369" as="sourcePoint" />
            <mxPoint x="670" y="319" as="targetPoint" />
          </mxGeometry>
        </mxCell>
        <mxCell id="mQoHJH7nJMJbnjslAucd-65" value="" style="endArrow=oval;html=1;rounded=0;exitX=0.57;exitY=0.075;exitDx=0;exitDy=0;exitPerimeter=0;endFill=1;" edge="1" parent="1" source="mQoHJH7nJMJbnjslAucd-1">
          <mxGeometry width="50" height="50" relative="1" as="geometry">
            <mxPoint x="400" y="360" as="sourcePoint" />
            <mxPoint x="190" y="380" as="targetPoint" />
          </mxGeometry>
        </mxCell>
        <mxCell id="mQoHJH7nJMJbnjslAucd-66" value="id" style="text;html=1;align=center;verticalAlign=middle;resizable=0;points=[];autosize=1;strokeColor=none;fillColor=none;" vertex="1" parent="1">
          <mxGeometry x="185" y="348" width="30" height="30" as="geometry" />
        </mxCell>
      </root>
    </mxGraphModel>
  </diagram>
</mxfile>
